<svg xmlns="http://www.w3.org/2000/svg" width="1000" height="1000" viewBox="100 100 800 800"><path fill="transparent" d="M0 0h1000v1000H0z"/><path fill="#00FF99" d="M482.699 108.81c214.324-9.222 395.487 157.166 404.487 371.5s-157.577 395.324-371.922 404.1c-214.026 8.764-394.692-157.516-403.678-371.534C102.6 298.86 268.691 118.02 482.699 108.811"/><path fill="#1c153a" d="M490.958 341.928c85.302-4.624 158.237 60.702 163.002 145.996 4.764 85.294-60.44 158.336-145.725 163.242-85.487 4.916-158.737-60.473-163.513-145.967s60.734-158.636 146.236-163.271m-266.378-60.14c15.487 4.947 35.296 8.859 51.376 13.067l52.226 13.56c8.469 2.148 17.68 4.765 26.19 6.405a2301 2301 0 0 0-18.492 36.522c-9.41 18.849-9.672 20.97-24.82 35.515a909 909 0 0 1-29.852 28.823c-7.336-11.788-16.318-24.842-24.06-36.432a4389 4389 0 0 1-48.972-74.244c4.862-8.352 10.538-15.556 16.404-23.216m546.224-2.186.91-.136c3.012 1.252 14.9 18.706 17.147 22.032l-51.042 80.027c-6.494 10.133-13.939 23.115-20.706 32.582-8.929-8.456-18.964-18.149-27.483-26.916-4.714-4.761-14.132-13.668-17.792-18.567-4.038-5.4-9.845-18.09-13.156-24.7l-15.23-29.722a6444 6444 0 0 1 127.352-34.6M281.206 578.74c2.863 2.293 7.16 6.919 9.868 9.638a1356 1356 0 0 1 19.946 20.216c3.83 3.939 14.86 14.672 17.686 18.822 2.558 3.752 8.022 15.934 10.342 20.825a1649 1649 0 0 0 15.094 30.817c-7.502 1.797-16.836 4.666-24.44 6.767a3429 3429 0 0 0-57.824 16.381 2900 2900 0 0 0-45.028 12.64c-5.22-5.702-11.998-15.454-16.694-21.926 5.402-10.347 19.243-30.84 25.785-41.206zm443.042-144.13c4.104 1.003 8.436 3.09 12.472 4.48 26.023 8.96 51.532 19.296 77.435 28.574 11.1 3.976 22.46 9.124 33.781 12.244a631 631 0 0 1 .76 26.674c-14.86 5.642-29.398 12.378-44.066 18.638-26.62 10.668-53.786 23.11-80.444 33.584-1.65-10.716-3.096-21.575-4.87-32.302-1.36-8.214-5.066-26.982-4.711-34.513.386-8.233 4.138-24.413 5.516-33.103.793-4.996 2.9-20.516 4.127-24.275m-450.388.872.756.68c1.98 10.181 3.294 20.826 5.052 31.229 1.762 10.429 4.79 23.746 5.278 34.182.126 2.666-2.46 14.924-3.007 18.276-2.069 12.622-5.253 26.608-6.673 39.266-4.208-1.19-16.558-6.486-21.426-8.31l-60.302-22.838c-13.402-4.928-30.785-12.518-43.47-16.531-.591-6.914-.206-18.62-.144-25.914 13.028-6.337 32.823-13.29 46.61-18.933 25.564-10.462 51.89-20.317 77.327-31.107m97.691 256.037c1.816.408 4.154.658 6.03.879 13.487 1.59 26.804 4.145 40.195 6.347 5.83.958 12.779 1.489 18.36 3.312 7.371 2.41 15.105 6.992 21.985 10.645l31.79 16.885-46.28 56.99c-12.607 15.316-24.932 31.384-37.7 46.51-5.4-2.238-18.816-6.021-24.854-7.97-.162-15.583-2.448-36.936-3.624-52.875l-4.406-56.94c-.584-7.913-.81-15.93-1.496-23.782m256.023-.757.143.046c.172.228.416.419.517.686 1.204 3.197-6.826 116.304-6.712 132.226a445 445 0 0 1-25.074 8.05c-2.979-4.5-9.82-12.134-13.475-16.455l-25.124-29.729c-15.186-18.214-31.854-38.654-47.716-55.981 8.3-4.54 18.552-9.097 27.278-13.633 10.544-5.48 24.086-12.66 34.99-16.754 3.492-1.311 16.692-3.067 20.94-3.7q17.084-2.608 34.233-4.756m-227.001-529.14c1.874-.472 6.084 5.83 7.526 7.56l16.544 19.553 64.574 76.44c-4.895 1.867-12.485 5.762-17.384 8.155l-28.64 14.058c-14.078 7.332-16.302 5.36-30.434 8.406-14.17 3.054-28.321 4.298-42.116 6.952.476-5.378.374-12.998.635-18.652l1.925-34.8c1.434-26.83 3.552-53.379 4.68-80.267 7.223-2.748 15.258-4.882 22.69-7.405m316.106 417.16c1.16.422 1.112.27 1.99 1.613 6.664 10.19 13.399 20.584 20.092 30.73l26.34 39.566c8.564 13.048 16.818 26.183 25.627 39.103-5.007 7.407-10.129 14.756-16.023 21.49-13.112-4.057-29.293-7.81-42.818-11.286-20.344-4.65-41.008-10.754-61.384-15.513-8.33-1.947-17.105-4.635-25.464-6.197 9.706-15.106 19.338-40.673 28.594-55.017 7.038-10.906 33.032-34.456 43.046-44.489M591.674 159.838c7.134 1.539 17.81 5.633 25.258 7.791.08 12.104 2.305 26.685 3.112 39.05 2.088 31.985 5.588 63.764 7.302 95.753l-40.332-7.152c-9.622-1.678-18.57-2.173-27.743-5.584-15.695-6.883-32.32-17.532-48.937-24.414 7.298-9.938 14.888-19.15 22.357-28.848zM485.83 147.217c28.859-1.979 63.854 3.05 91.976 8.96-6.002 8.574-14.508 18.82-21.042 27.327l-52.405 67.756-4.912 6.038c-3.737-5.612-17.254-20.647-22.537-27.028l-60.986-72.963c25.019-6.028 44.426-8.56 69.906-10.09m360.762 374.777.517.13c2.73 5.286-6.265 49.613-7.819 56.525-7.94 35.305-23.116 67.611-40.511 99.065l-26.739-40.523-43.17-66.135a3062 3062 0 0 0 82.128-34.17c11.886-5.044 23.468-10.346 35.594-14.892m-695.413 4.409c10.513 3.456 22.754 8.567 33.271 12.58l50.43 19.135 21.4 8.208c3.892 1.522 9.854 4.136 13.754 5.09-3.308 6.186-8.116 13.529-11.826 19.628a4022 4022 0 0 1-30.306 48.178c-8.366 13.73-17.23 27.299-25.674 41.156-4.984-6.672-11.559-19.376-15.3-26.918a341.7 341.7 0 0 1-35.75-127.057m348.618 211.384c1.592 1.192 15.552 18.053 17.822 20.727l45.865 54.33c5.842 6.895 13.347 16.544 19.214 22.828-29.855 6.817-49.347 9.618-79.743 10.464-33.458.39-51.03-3.527-82.77-9.55 3.812-4.158 8.822-11.03 12.522-15.624l22.772-27.971c14.16-17.641 30.748-37.256 44.318-55.204m131.158-564.786c7.993 3.488 14.836 6.259 22.766 10.154 43.76 21.5 77.05 48.989 109.528 84.973-8.09 1.668-17.86 4.378-25.872 6.594-31.914 8.292-64.584 17.763-96.532 26.45-2.034-37.744-6.748-75.926-9.286-113.673-.323-4.836-.483-9.654-.604-14.498M362.6 175.443l.65.12c1.376 2.112-5.794 114.761-5.946 126.546-9.722-2.193-18.737-5.002-28.292-7.36-22.702-5.61-45.403-12.13-68.078-17.665-9.077-2.124-18.228-4.818-27.296-6.725 32.646-39.99 81.436-75.213 128.962-94.916m278.836 515.471c41.04 11.18 82.933 20.79 124.177 31.747-5.414 5.423-10.689 11.85-16.225 17.503a363 363 0 0 1-36.624 32.672c-20.87 16.166-53.02 35.433-77.662 45.08.524-5.047.715-11.328.852-16.486.987-36.662 5.096-73.934 5.482-110.516m-283.829.689.8.661c.085 10.876 1.341 21.519 2.158 32.326l4.05 55.746c.979 13.218 2.246 25.443 2.417 38.727-7.591-2.284-16.56-6.998-23.604-10.56-18.634-9.423-35.896-19.735-52.676-32.151-19.368-14.241-38.454-32.502-54.54-50.438 40.336-11.64 81.138-22.364 121.395-34.311M200.014 317.275c.803.418.974.551 1.458 1.343 21.662 35.416 46.402 69.214 68.389 104.386l-67.89 27.067c-16.705 6.403-33.92 13.485-50.666 20.047 3.57-51.671 21.601-108.715 48.709-152.843m596.332-3.013c2.517 1.528 8.862 14.112 10.584 17.324a359.8 359.8 0 0 1 36.818 108.773c1.514 8.649 2.2 16.81 3.468 25.397a1741 1741 0 0 1-50.111-18.9c-22.956-8.16-45.72-17.296-68.773-24.951 4.888-8.87 11.674-18.945 17.2-27.674l37.405-58.783c4.487-7.131 9.138-13.872 13.41-21.186M499.32 661.932c5.22-.212 14.526 6.433 19.322 9.185a1463 1463 0 0 1 35.768 21.16c-2.498 1.508-5.112 2.813-7.742 4.073-14.307 6.856-28.302 14.383-42.536 21.372l-3.786 1.807a1499 1499 0 0 0-50.08-26.132c5.52-3.025 11.536-7.576 16.872-11.219q9.357-6.245 18.816-12.33c4.334-2.804 8.64-5.884 13.367-7.916m202.685-157.518q.315.334.626.67c1.95 16.928 6.616 43.892 8.91 59.77-5.286 5.88-12.244 12.383-17.958 18.005-6.998 6.887-14.21 14.248-21.326 20.933-1.151-.971-.98-2.038-1.374-3.927-4.571-17.347-9.485-33.995-14.191-51.227 5.263-9.865 35.47-35.514 45.313-44.224M668.624 385.21c1.842 1.094 7.724 7.313 9.758 9.206 10.886 10.14 22.19 23.424 33.262 33.044-.56 4.254-9.077 54.282-9.46 54.828l-.964-.32c-9.697-7.808-19.13-15.508-28.567-23.622-5.124-4.405-10.477-8.296-15.605-12.901-1.477-10.937 3.326-25.727 6.054-36.681a903 903 0 0 0 5.522-23.554m-247.116-76.975 1.034-.172.394.626c-1.548 6.425-16.446 48.317-20.392 52.59-1.475 1.597-3.864 2.323-5.918 2.807-4.643 1.094-9.61.972-14.34 1.609-12.931 1.739-25.62 3.81-38.662 4.681-.97.126-.47.18-1.488-.265.214-3.283 23.048-47.166 26.488-53.575 3.838-1.048 13.424-1.885 17.968-2.744 11.74-2.214 22.99-4.473 34.916-5.557m-94.78 81.639c1.003.948 14.356 51.394 15.052 56.216-3.868 5.208-10.131 10.456-14.99 14.954-8.933 8.273-18.118 16.158-26.948 24.569-.962 1.034-1.698 1.79-3.074 1.737-.584-1.444-1.022-4.945-1.268-6.646-2.502-17.298-5.986-34.425-8.778-51.67 13.194-12.158 26.666-26.631 40.006-39.16M297.142 510.85c1.538 1.013 10.518 8.673 12.488 10.402 10.712 9.408 23.636 19.443 33.446 29.582-.547 5.987-3.338 17.014-4.766 23.298l-7.245 32.696-.372 1.358c-1.935-.287-38.465-37.338-43.447-42.484 1.532-4.992 3.164-15.133 4.113-20.51a1912 1912 0 0 0 5.783-34.342m273.626-204.241c6.646 1.527 16.11 2.157 23.166 3.555 12.202 2.418 22.956 4.604 35.425 5.826 5.31 10.75 11.38 21.552 16.611 32.416 2.776 5.764 6.399 11.606 8.796 17.544-13.735-1.688-47.565.445-58.18-3.301-5.41-5.755-22.227-46.827-25.818-56.04M344.296 627.958c11.58.798 50.189.33 57.538 3.58 2.132.943 3.366 2.863 4.48 4.838 2.55 4.529 4.076 9.855 6.123 14.64 5.021 11.755 10.31 23.297 14.61 35.349-19.075-2.971-40.403-7.41-59.045-9.453-1.454-3.83-4.647-9.656-6.462-13.507-5.58-11.859-11.836-23.519-17.244-35.447m155.59-352.988c2.473.108 42.44 20.927 48.41 23.87-9.966 7.046-19.828 13.98-30.044 20.662-4.931 3.226-9.68 7.2-14.855 10.124-2.954 1.668-4.395 1.238-7.57.302-3.943-1.786-9.545-5.538-13.569-7.726-12.288-6.674-25.016-14.958-37.4-21.282 17.526-6.878 37.713-19.018 55.028-25.95m153.952 348.227 4.61-.393c-8.682 17.964-18.488 35.49-27.375 53.838-17.453.965-31.542 4.816-48.697 7.036-1.35.206-4.158.86-5.116.023 1.048-6.922 6.887-19.548 9.42-26.565 3.01-8.336 6.036-19.084 11.256-26.13 2.352-3.174 18.286-3.162 22.553-4.023 11.088-1.319 22.271-2.759 33.35-3.786"/><path fill="#1c153a" d="m650.53 570.798.453.2c1.918 2.73 10.105 35.943 11.107 40.252-10.483.605-23.204 2.41-33.798 3.662-4.311.31-7.723.556-12.006 1.264 13.659-15.561 22.3-28.806 34.245-45.378m-35.704-194.904c14.75-.03 29.64 1.072 44.196.94-2.309 11.27-5.673 23.138-8.27 34.504-1.018 3.647-1.507 5.702-2.096 9.43-3.69-4.82-7.471-10.738-11.035-15.754a345 345 0 0 0-22.795-29.12m-235.195 1.85c.694-.2 1.17-.17 1.906-.217l.2.659c-3.881 5.21-8.574 10.072-12.388 15.264-7.11 9.678-15.13 19.247-21.88 29.124-.502-2.38-1.046-4.374-1.697-6.698-2.082-9.038-7.109-24.198-9.87-33.807 11.813-.25 31.173-3 43.729-4.325m-46.924 93.136.79.216c.464.746-.05 27.059-.044 30.929.018 8.395.24 16.79.668 25.174-4.448-4.2-11.908-9.966-16.838-14.107a897 897 0 0 1-16.646-13.576c9.967-8.842 21.95-20.68 32.07-28.636m90.098 175.254a401 401 0 0 0 53.814 16.443c-5.028 3.696-10.102 6.994-15.31 10.421-7.11 4.653-14.426 9.325-21.205 14.418-4.773-13.43-12.405-27.296-17.3-41.282m155.97-2.094c.544 2.283-13.019 35.82-14.712 41.386-3.219-2.735-18.227-11.33-22.813-14.116q-7.501-4.894-15.217-9.441c8.75-.94 44.58-13.8 52.742-17.829m86.349-176.772c3.149 1.698 13.914 10.996 17.243 13.797a438 438 0 0 0 15.523 12.372 654 654 0 0 0-15.204 13.707c-5.794 5.402-11.995 10.818-17.91 16.106 1.034-11.962-.276-25.68.306-37.832.27-5.65.317-12.576.042-18.15M556.98 306.376c.322.067 1.162.428 1.27.698 5.615 14.092 12.235 27.718 18.058 41.73-6.323-3.192-18.075-7.846-24.688-10.462-6.992-2.5-22.51-7.246-29.69-7.624 4.672-2.836 9.022-6.277 13.5-9.436zm-121.438 1.794c2.28 1.086 8.262 4.842 10.788 6.302a951 951 0 0 1 27.802 16.546c-9.336 2.1-16.474 4.259-25.574 7.16-9.321 3.526-18.814 6.882-27.823 11.18 2.24-5.871 4.199-12.352 6.421-18.346 2.756-7.436 6.06-15.348 8.386-22.842m-85.67 264.584c1.11 1.122 7.082 11.34 8.868 13.878a766 766 0 0 0 23.798 31.426l-9.498-.394a2894 2894 0 0 1-32.284-.725c2.866-13.48 5.964-31.443 9.116-44.185"/></svg>